<svg height="512pt" viewBox="-9 0 512 512.1229" width="512pt" xmlns="http://www.w3.org/2000/svg"><path d="m486.457031 264.535156c-.023437 131.949219-106.984375 238.910156-238.933593 238.933594-4.265626 0-8.535157-.085938-12.800782-.34375-91.164062-4.894531-171.570312-61.3125-207.1875-145.375-35.617187-84.0625-20.21875-181.074219 39.679688-249.972656l114.6875-72.960938c17.230468-5.011718 34.984375-7.988281 52.90625-8.875 4.179687-.253906 8.449218-.339844 12.714844-.339844 7.394531 0 14.734374.339844 22.015624 1.023438l113.921876 41.472656h.082031c64.507812 44.582032 102.984375 118.023438 102.914062 196.4375zm0 0" fill="#283593"/><path d="m460.855469 264.535156c-.023438 126.976563-99.339844 231.761719-226.132813 238.589844-91.164062-4.894531-171.570312-61.3125-207.1875-145.375-35.617187-84.0625-20.21875-181.074219 39.679688-249.972656l114.6875-72.960938c17.230468-5.011718 34.984375-7.988281 52.90625-8.875 3.070312.171875 6.058594.425782 9.128906.683594l113.921875 41.472656h.085937c64.507813 44.582032 102.980469 118.023438 102.910157 196.4375zm0 0" fill="#3f51b5"/><path d="m349.921875 418.492188c-44.882813 16.8125-134.058594 4.183593-189.867187-6.570313 4.4375-37.207031-10.324219-145.578125-19.539063-180.054687 57.855469-9.640626 167.507813-20.90625 225.707031 17.664062 11.496094 7.714844 19.332032 19.804688 21.671875 33.453125 6.554688 36.265625 14.320313 115.882813-37.972656 135.507813zm0 0" fill="#802d40"/><path d="m384.054688 76.800781c0 37.703125-30.5625 68.265625-68.265626 68.265625-4.292968-.003906-8.578124-.402344-12.800781-1.195312-32.222656-6.109375-55.550781-34.269532-55.550781-67.070313s23.328125-60.960937 55.550781-67.070312c4.222657-.792969 8.507813-1.191407 12.800781-1.195313 37.703126 0 68.265626 30.5625 68.265626 68.265625zm0 0" fill="#cfd8dc"/><path d="m358.457031 76.800781c0-37.042969-24.832031-67.070312-55.46875-67.070312-30.632812 0-55.464843 30.027343-55.464843 67.070312s24.832031 67.070313 55.464843 67.070313c30.636719 0 55.46875-30.027344 55.46875-67.070313zm0 0" fill="#fff"/><path d="m196.324219 76.800781c0 37.703125-30.566407 68.265625-68.269531 68.265625-37.699219 0-68.265626-30.5625-68.265626-68.265625s30.566407-68.265625 68.265626-68.265625c37.703124 0 68.269531 30.5625 68.269531 68.265625zm0 0" fill="#fff"/><path d="m330.550781 250.367188c-.027343 2.65625-1.117187 5.1875-3.027343 7.03125-1.90625 1.84375-4.472657 2.84375-7.125 2.785156l-65.453126.597656-101.800781 3.410156-4.863281.085938-15.617188.425781c-1.46875.09375-2.945312-.078125-4.351562-.511719h-.171875c-3.234375-.828125-5.695313-3.457031-6.3125-6.738281l-2.304687-22.273437c36.363281-7.050782 73.230468-11.1875 110.25-12.375h.171874c33.78125-1.648438 67.609376 2.15625 100.179688 11.265624zm0 0" fill="#cfd8dc"/><path d="m307.171875 250.367188c-.03125 2.65625-1.121094 5.1875-3.027344 7.03125-1.910156 1.84375-4.476562 2.84375-7.128906 2.785156l-65.449219.597656-101.804687 3.410156h-1.621094c-3.234375-.828125-5.695313-3.457031-6.3125-6.738281l-2.304687-22.273437c36.363281-7.050782 73.230468-11.1875 110.25-12.375h.171874c25.996094.179687 51.84375 3.96875 76.800782 11.265624zm0 0" fill="#fff"/><path d="m345.398438 390.230469-.765626 29.097656c-22.132812 6.207031-45.15625 8.628906-68.097656 7.167969h-.511718c-47.722657-2.375-95.160157-8.742188-141.824219-19.027344l2.476562-24.320312c.652344-3.402344 3.269531-6.089844 6.65625-6.828126 1.363281-.359374 2.773438-.503906 4.179688-.425781l10.753906.253907 4.863281.171874 4.863282.085938 101.804687 3.414062 65.449219.597657c2.652344-.0625 5.21875.941406 7.128906 2.785156 1.90625 1.84375 2.996094 4.375 3.023438 7.027344zm0 0" fill="#cfd8dc"/><path d="m324.238281 390.230469-.769531 29.097656c-15.21875 4.632813-31.023438 7.046875-46.933594 7.167969h-.511718c-47.722657-2.375-95.160157-8.742188-141.824219-19.027344l2.476562-24.320312c.652344-3.402344 3.269531-6.089844 6.65625-6.828126l3.496094.085938 101.804687 3.414062 65.449219.597657c2.652344-.0625 5.21875.941406 7.128907 2.785156 1.90625 1.84375 2.996093 4.375 3.027343 7.027344zm0 0" fill="#fff"/><path d="m194.0625 167.929688c3.199219-3.464844 2.984375-8.867188-.480469-12.066407-3.460937-3.203125-8.863281-2.988281-12.0625.476563-.128906.152344-14.210937 14.328125-48.863281 14.328125-31.523438 0-39.253906-11.699219-39.644531-12.375-2.144531-4.066407-7.121094-5.707031-11.261719-3.707031-4.140625 1.996093-5.953125 6.917968-4.101562 11.125 1.042968 2.261718 11.425781 22.023437 55.015624 22.023437 42.617188 0 60.648438-19.003906 61.398438-19.804687zm0 0"/><path d="m311.855469 187.734375c42.625 0 60.65625-19.003906 61.441406-19.804687 3.199219-3.464844 2.984375-8.867188-.480469-12.066407-3.460937-3.203125-8.863281-2.988281-12.066406.476563-.160156.152344-14.242188 14.328125-48.894531 14.328125-31.523438 0-39.253907-11.699219-39.644531-12.375-2.140626-4.066407-7.121094-5.707031-11.261719-3.707031-4.140625 1.996093-5.953125 6.917968-4.097657 11.125 1.03125 2.261718 11.414063 22.023437 55.003907 22.023437zm0 0"/><path d="m311.523438 110.933594c16.496093 0 29.867187-13.371094 29.867187-29.867188 0-16.492187-13.371094-29.867187-29.867187-29.867187-16.496094 0-29.867188 13.375-29.867188 29.867187 0 16.496094 13.371094 29.867188 29.867188 29.867188zm0-42.667969c7.070312 0 12.800781 5.734375 12.800781 12.800781 0 7.070313-5.730469 12.800782-12.800781 12.800782-7.070313 0-12.800782-5.730469-12.800782-12.800782 0-7.066406 5.730469-12.800781 12.800782-12.800781zm0 0"/><path d="m132.324219 110.933594c16.492187 0 29.867187-13.371094 29.867187-29.867188 0-16.492187-13.375-29.867187-29.867187-29.867187-16.496094 0-29.867188 13.375-29.867188 29.867187 0 16.496094 13.371094 29.867188 29.867188 29.867188zm0-42.667969c7.066406 0 12.796875 5.734375 12.796875 12.800781 0 7.070313-5.730469 12.800782-12.796875 12.800782-7.070313 0-12.800781-5.730469-12.800781-12.800782 0-7.066406 5.730468-12.800781 12.800781-12.800781zm0 0"/><path d="m391.316406 63.242188c-4.792968-26.929688-23.570312-49.265626-49.273437-58.621094-25.703125-9.351563-54.445313-4.304688-75.421875 13.25-27.492188-2.136719-55.148438.351562-81.816406 7.363281-25.113282-27.667969-66.503907-33.226563-98.019532-13.160156-31.519531 20.066406-44 59.921875-29.554687 94.378906-65.042969 78.246094-75.566407 188.328125-26.523438 277.476563 49.046875 89.148437 147.660157 139.191406 248.566407 126.140624 100.910156-13.050781 183.542968-86.539062 208.292968-185.234374 24.746094-98.691407-13.4375-202.472657-96.25-261.59375zm-15.792968 13.558593c0 32.988281-26.742188 59.734375-59.734376 59.734375-32.988281 0-59.734374-26.746094-59.734374-59.734375s26.746093-59.734375 59.734374-59.734375c32.976563.039063 59.695313 26.761719 59.734376 59.734375zm-247.46875-59.734375c32.992187 0 59.734374 26.746094 59.734374 59.734375s-26.742187 59.734375-59.734374 59.734375c-32.988282 0-59.730469-26.746094-59.730469-59.734375.035156-32.972656 26.757812-59.695312 59.730469-59.734375zm119.46875 477.867188c-88.191407.121094-168.691407-50.179688-207.246094-129.492188-38.558594-79.316406-28.390625-173.6875 26.175781-242.96875 24.039063 32.261719 68.910156 40.480469 102.824219 18.832032 33.910156-21.648438 45.34375-65.8125 26.191406-101.195313 18.492188-4.261719 37.433594-6.226563 56.40625-5.855469-17.691406 26.511719-17.167969 61.195313 1.316406 87.164063 18.480469 25.964843 51.082032 37.816406 81.925782 29.785156 30.84375-8.035156 53.519531-34.289063 56.984374-65.972656 76.070313 61.292969 105.203126 163.898437 72.695313 256.015625-32.507813 92.117187-119.585937 153.714844-217.273437 153.6875zm0 0"/><path d="m370.914062 242.089844c-10.785156-6.964844-22.464843-12.4375-34.722656-16.269532l-.136718-.042968c-90.453126-29.304688-228.9375 3.273437-235.585938 4.855468-2.96875.707032-5.328125 2.949219-6.195312 5.871094-.871094 2.925782-.113282 6.089844 1.988281 8.304688 2.097656 2.210937 5.214843 3.140625 8.183593 2.429687.253907-.0625 4.0625-.957031 10.460938-2.269531l1.347656 13.039062c1.480469 8.84375 9.3125 15.203126 18.269532 14.835938h1.273437l8.832031-.28125c7.972656 30.820312 10.960938 62.71875 8.847656 94.484375l-2.558593-.0625c-9.535157-1.125-18.273438 5.433594-19.859375 14.898437l-1.492188 14.765626c-10.121094-2.238282-16.214844-3.746094-16.527344-3.824219-4.558593-1.105469-9.152343 1.671875-10.292968 6.21875s1.605468 9.164062 6.144531 10.335937c5.375 1.347656 103.097656 25.488282 180.402344 25.480469 20.171875.554687 40.3125-1.945313 59.734375-7.414063.796875-.140624 1.574218-.402343 2.296875-.769531.5-.179687 1.054687-.332031 1.550781-.511719 58.71875-22.03125 49.910156-108.75 43.402344-145.007812-2.796875-15.925781-11.953125-30.027344-25.363282-39.066406zm-235.878906 13.65625c-.648437.0625-1.304687-.050782-1.894531-.335938l-1.414063-13.652344c43.621094-7.824218 130.558594-19.328124 192.996094-1.570312l.359375 10.027344c-.46875.558594-1.132812.921875-1.859375 1.015625l-65.707031.605469-101.65625 3.414062zm11.34375 144.46875 1.609375-15.863282c.710938-.308593 1.484375-.429687 2.253907-.351562l122.410156 3.925781 64.929687.570313c1.410157.105468 2.238281.796875 2.230469 1.078125l-.597656 23.039062c-49.757813 13.464844-143.035156-2.21875-192.835938-12.398437zm210.039063 4.992187.332031-14.378906c.503906-4.410156-.839844-8.835937-3.710938-12.21875-3.738281-4.347656-9.113281-6.941406-14.839843-7.167969l-65.238281-.589844-101.949219-3.414062h-.476563c2.054688-32.070312-.820312-64.265625-8.535156-95.460938l95.867188-3.082031 65.976562-.613281c5.550781-.335938 10.722656-2.921875 14.320312-7.160156 2.734376-3.136719 4.085938-7.246094 3.753907-11.390625l-.09375-3.601563c6.855469 2.773438 13.429687 6.203125 19.628906 10.238282 9.546875 6.425781 16.066406 16.460937 18.0625 27.792968 5.335937 29.636719 12.785156 97.1875-23.097656 121.011719zm0 0"/></svg>